# xmcd CD database file
#
# Track frame offsets:
#	150
#	17163
#	46878
#	62955
#	92040
#	107200
#	124700
#	139445
#	151273
#	195030
#	211700
#	223115
#	239655
#	257630
#	276455
#
# Disc length: 3956 seconds
#
# Revision: 0
# Processed by: cddbd v1.5.2PL0 Copyright (c) Steve Scherf et al.
# Submitted via: CDex 1.51
#
DISCID=de0f720f
DTITLE=Van Morrison - Hymns to the Silence
DYEAR=1900
DGENRE=Jazz
TTITLE0=Professional jealousy
TTITLE1=I'm not feeling it anymore
TTITLE2=Ordinary Life
TTITLE3=Some peace of mind
TTITLE4=So complicated
TTITLE5=Why must I always explain
TTITLE6=Village idiot
TTITLE7=By his grace
TTITLE8=Hymns to the silence
TTITLE9=Green mansions
TTITLE10=All saints day
TTITLE11=Pagan streams
TTITLE12=Quality strteet
TTITLE13=It must be you
TTITLE14=I need your kind of loving
EXTD=
EXTT0=
EXTT1=
EXTT2=
EXTT3=
EXTT4=
EXTT5=
EXTT6=
EXTT7=
EXTT8=
EXTT9=
EXTT10=
EXTT11=
EXTT12=
EXTT13=
EXTT14=
PLAYORDER=
